{"title":"Man.of.Steel.2013.BluRay.REPACK.720p.x264-HEFF","magnet":"magnet:?xt=urn:btih:686cb18fb7fabdd6ddf658cc6350caebc588f167&dn=Man.of.Steel.2013.BluRay.REPACK.720p.x264-HEFF&tr=udp%3A%2F%2Ftracker.leechers-paradise.org%3A6969&tr=udp%3A%2F%2Fzer0day.ch%3A1337&tr=udp%3A%2F%2Fopen.demonii.com%3A1337&tr=udp%3A%2F%2Ftracker.coppersurfer.tk%3A6969&tr=udp%3A%2F%2Fexodus.desync.com%3A6969","uploader":"pheonix83","categoryP":"video","categoryS":"hd___movies","size":"3014496689","seeders":"13","leechers":"13","description":"Donate Us: bitcoin:17HBPWiAcvh9GFcZPg1ebvBXbnJDE3oxut\r\n\r\nGeneral\r\nComplete name                            : Man.of.Steel.2013.BluRay.720p.x264-HEFF.mp4\r\nFormat                                   : MPEG-4\r\nFormat profile                           : Base Media\r\nCodec ID                                 : isom (isom/iso2/avc1/mp41)\r\nFile size                                : 2.81 GiB\r\nDuration                                 : 2 h 23 min\r\nOverall bit rate                         : 2 809 kb/s\r\n\r\nVideo\r\nID                                       : 1\r\nFormat                                   : AVC\r\nFormat/Info                              : Advanced Video Codec\r\nFormat profile                           : <a class=\"__cf_email__\" href=\"/cdn-cgi/l/email-protection\" data-cfemail=\"f2bf939b9cb2bec6dcc3\">[email&#xA0;protected]</a><script data-cfhash=\"f9e31\" type=\"text/javascript\">/* <![CDATA[ */!function(t,e,r,n,c,a,p){try{t=document.currentScript||function(){for(t=document.getElementsByTagName('script'),e=t.length;e--;)if(t[e].getAttribute('data-cfhash'))return t[e]}();if(t&&(c=t.previousSibling)){p=t.parentNode;if(a=c.getAttribute('data-cfemail')){for(e='',r='0x'+a.substr(0,2)|0,n=2;a.length-n;n+=2)e+='%'+('0'+('0x'+a.substr(n,2)^r).toString(16)).slice(-2);p.replaceChild(document.createTextNode(decodeURIComponent(e)),c)}p.removeChild(t)}}catch(u){}}()/* ]]> */</script>\r\nFormat settings, CABAC                   : Yes\r\nFormat settings, ReFrames                : 4 frames\r\nCodec ID                                 : avc1\r\nCodec ID/Info                            : Advanced Video Coding\r\nDuration                                 : 2 h 23 min\r\nBit rate                                 : 2 700 kb/s\r\nWidth                                    : 1 280 pixels\r\nHeight                                   : 720 pixels\r\nDisplay aspect ratio                     : 16:9\r\nFrame rate mode                          : Constant\r\nFrame rate                               : 23.976 (23976/1000) FPS\r\nChroma subsampling                       : 4:2:0\r\nBit depth                                : 8 bits\r\nScan type                                : Progressive\r\nBits/(Pixel*Frame)                       : 0.122\r\nStream size                              : 2.67 GiB (95%)\r\nWriting library                          : x264 core 148\r\n\r\nAudio\r\nID                                       : 2\r\nFormat                                   : AAC\r\nFormat/Info                              : Advanced Audio Codec\r\nFormat profile                           : LC\r\nCodec ID                                 : 40\r\nDuration                                 : 2 h 23 min\r\nBit rate mode                            : Constant\r\nBit rate                                 : 129 kb/s\r\nChannel(s)                               : 2 channels\r\nChannel positions                        : Front: L R\r\nSampling rate                            : 48.0 kHz\r\nFrame rate                               : 46.875 FPS (1024 spf)\r\nCompression mode                         : Lossy\r\nStream size                              : 132 MiB (5%)","last_updated":"2017-04-23T17:57:49.244Z","parsed":{"xt":"urn:btih:686cb18fb7fabdd6ddf658cc6350caebc588f167","dn":"Man.of.Steel.2013.BluRay.REPACK.720p.x264-HEFF","tr":["udp://exodus.desync.com:6969","udp://open.demonii.com:1337","udp://tracker.coppersurfer.tk:6969","udp://tracker.leechers-paradise.org:6969","udp://zer0day.ch:1337"],"infoHash":"686cb18fb7fabdd6ddf658cc6350caebc588f167","infoHashBuffer":{"type":"Buffer","data":[104,108,177,143,183,250,189,214,221,246,88,204,99,80,202,235,197,136,241,103]},"name":"Man.of.Steel.2013.BluRay.REPACK.720p.x264-HEFF","announce":["udp://exodus.desync.com:6969","udp://open.demonii.com:1337","udp://tracker.coppersurfer.tk:6969","udp://tracker.leechers-paradise.org:6969","udp://zer0day.ch:1337"],"urlList":[]}}